<svg xmlns="http://www.w3.org/2000/svg" viewBox="0 0 30.97 17.54"><defs><style>.cls-1{fill:#fcf8f5;}</style></defs><title>Asset 1</title><g id="Layer_2" data-name="Layer 2"><g id="Content"><path class="cls-1" d="M15.81,13.51a9.91,9.91,0,0,0,.89,1.57,3.94,3.94,0,0,0,3.59,1.31A6.47,6.47,0,0,0,24.82,14a1.09,1.09,0,0,0,.19-.34,4.55,4.55,0,0,1-4,.17,3.15,3.15,0,0,1-1.58-1.38c.27.14.54.31.83.42a1.46,1.46,0,0,0,1.57-.23,1.07,1.07,0,0,1,1.65,0,1.56,1.56,0,0,0,1.41.4,1.37,1.37,0,0,0,1-.9A6.08,6.08,0,0,0,25.61,7l-.1-.16-.1-.09A3.68,3.68,0,0,1,23,7.86a2.53,2.53,0,0,0-.86.27,1.07,1.07,0,0,0-.48.68c0,.21.26.46.46.64a2,2,0,0,0,.57.25,2.92,2.92,0,0,1-2.6-.53c-.86-.68-.66-1.58.37-1.94.56-.19,1.14-.33,1.71-.51a7,7,0,0,0,1-.36c.29-.14.6-.4.46-.74A1.36,1.36,0,0,0,23,4.89a5.53,5.53,0,0,0-4.59.33,16.65,16.65,0,0,0-4.11,3.19,18.64,18.64,0,0,1-3.34,2.93,6,6,0,0,1-5.56.22c.45-.11.91-.18,1.35-.32A2.89,2.89,0,0,0,8.92,9.31,2.07,2.07,0,0,1,10.81,8a3.81,3.81,0,0,1,1,0,1.93,1.93,0,0,0,1.65-.58c.65-.62,1.28-1.26,1.95-1.85q.4-.35.81-.65c6.69-4.93,15.12,3.83,9.6,10a7.75,7.75,0,0,1-5.18,2.59,5,5,0,0,1-3.51-.84A3.29,3.29,0,0,1,15.81,13.51Z"/><path class="cls-1" d="M24.81,2c-1.43-.1-2.81-.25-4.19-.3a15.09,15.09,0,0,0-10.78,4c-1.12,1-2.13,2.11-3.16,3.2a6.18,6.18,0,0,1-3.4,2.18A7.39,7.39,0,0,1,0,10.74a3.46,3.46,0,0,0,.84-.34A5.68,5.68,0,0,0,2.36,9,2.52,2.52,0,0,1,5.31,7.68,1.78,1.78,0,0,0,7.07,7a25.41,25.41,0,0,1,5.36-4.74A15.23,15.23,0,0,1,20.83,0a5.9,5.9,0,0,1,3.84,1.77A.86.86,0,0,1,24.81,2Z"/><path class="cls-1" d="M31,9.63a.82.82,0,0,1-.86.82.84.84,0,0,1-.79-.85.82.82,0,0,1,.84-.79A.79.79,0,0,1,31,9.63Z"/></g></g></svg>